<mxfile host="app.diagrams.net" modified="2023-03-17T11:47:25.727Z" agent="5.0 (Windows NT 10.0; Win64; x64) AppleWebKit/537.36 (KHTML, like Gecko) Chrome/111.0.0.0 Safari/537.36 Edg/111.0.1661.41" etag="vGv3K849BNcauvNKiEHL" version="20.8.20" type="github">
  <diagram name="第 1 页" id="1Hu0rR5MAEPpTLeVat40">
    <mxGraphModel dx="646" dy="341" grid="0" gridSize="10" guides="1" tooltips="1" connect="1" arrows="1" fold="1" page="1" pageScale="1" pageWidth="827" pageHeight="1169" math="0" shadow="0">
      <root>
        <mxCell id="0" />
        <mxCell id="1" parent="0" />
        <mxCell id="Ugb7wUQW9oK9LGEoKZRi-2" value="INIT" style="ellipse;whiteSpace=wrap;html=1;aspect=fixed;" parent="1" vertex="1">
          <mxGeometry x="139" y="193" width="62" height="62" as="geometry" />
        </mxCell>
        <mxCell id="Ugb7wUQW9oK9LGEoKZRi-3" value="0" style="ellipse;whiteSpace=wrap;html=1;aspect=fixed;" parent="1" vertex="1">
          <mxGeometry x="254" y="193" width="62" height="62" as="geometry" />
        </mxCell>
        <mxCell id="Ugb7wUQW9oK9LGEoKZRi-4" value="" style="endArrow=classic;html=1;rounded=0;" parent="1" edge="1">
          <mxGeometry width="50" height="50" relative="1" as="geometry">
            <mxPoint x="71" y="224" as="sourcePoint" />
            <mxPoint x="139" y="224" as="targetPoint" />
          </mxGeometry>
        </mxCell>
        <mxCell id="Ugb7wUQW9oK9LGEoKZRi-5" value="" style="endArrow=classic;html=1;rounded=0;entryX=0;entryY=0.5;entryDx=0;entryDy=0;" parent="1" target="Ugb7wUQW9oK9LGEoKZRi-3" edge="1">
          <mxGeometry width="50" height="50" relative="1" as="geometry">
            <mxPoint x="201" y="223.76" as="sourcePoint" />
            <mxPoint x="269" y="223.76" as="targetPoint" />
          </mxGeometry>
        </mxCell>
        <mxCell id="Ugb7wUQW9oK9LGEoKZRi-6" value="&quot;" style="text;html=1;align=center;verticalAlign=middle;resizable=0;points=[];autosize=1;strokeColor=none;fillColor=none;" parent="1" vertex="1">
          <mxGeometry x="215" y="201" width="22" height="26" as="geometry" />
        </mxCell>
        <mxCell id="Ugb7wUQW9oK9LGEoKZRi-7" value="" style="curved=1;endArrow=classic;html=1;rounded=0;entryX=0.446;entryY=0.022;entryDx=0;entryDy=0;entryPerimeter=0;" parent="1" target="Ugb7wUQW9oK9LGEoKZRi-3" edge="1">
          <mxGeometry width="50" height="50" relative="1" as="geometry">
            <mxPoint x="316" y="225" as="sourcePoint" />
            <mxPoint x="366" y="175" as="targetPoint" />
            <Array as="points">
              <mxPoint x="342" y="212" />
              <mxPoint x="342" y="184" />
              <mxPoint x="321" y="165" />
              <mxPoint x="288" y="167" />
            </Array>
          </mxGeometry>
        </mxCell>
        <mxCell id="Ugb7wUQW9oK9LGEoKZRi-8" value="!(&quot;|\)" style="edgeLabel;html=1;align=center;verticalAlign=middle;resizable=0;points=[];" parent="Ugb7wUQW9oK9LGEoKZRi-7" vertex="1" connectable="0">
          <mxGeometry x="0.3226" y="-2" relative="1" as="geometry">
            <mxPoint x="7" y="-9" as="offset" />
          </mxGeometry>
        </mxCell>
        <mxCell id="Ugb7wUQW9oK9LGEoKZRi-10" value="1" style="ellipse;whiteSpace=wrap;html=1;aspect=fixed;" parent="1" vertex="1">
          <mxGeometry x="254" y="306" width="62" height="62" as="geometry" />
        </mxCell>
        <mxCell id="Ugb7wUQW9oK9LGEoKZRi-11" value="" style="endArrow=classic;html=1;rounded=0;exitX=0.6;exitY=1.031;exitDx=0;exitDy=0;exitPerimeter=0;entryX=0.607;entryY=0.038;entryDx=0;entryDy=0;entryPerimeter=0;" parent="1" source="Ugb7wUQW9oK9LGEoKZRi-3" target="Ugb7wUQW9oK9LGEoKZRi-10" edge="1">
          <mxGeometry width="50" height="50" relative="1" as="geometry">
            <mxPoint x="201" y="336.76" as="sourcePoint" />
            <mxPoint x="269" y="336.76" as="targetPoint" />
          </mxGeometry>
        </mxCell>
        <mxCell id="Ugb7wUQW9oK9LGEoKZRi-15" value="\" style="edgeLabel;html=1;align=center;verticalAlign=middle;resizable=0;points=[];" parent="Ugb7wUQW9oK9LGEoKZRi-11" vertex="1" connectable="0">
          <mxGeometry x="-0.4192" relative="1" as="geometry">
            <mxPoint x="4" y="6" as="offset" />
          </mxGeometry>
        </mxCell>
        <mxCell id="Ugb7wUQW9oK9LGEoKZRi-16" value="2" style="ellipse;whiteSpace=wrap;html=1;aspect=fixed;" parent="1" vertex="1">
          <mxGeometry x="369" y="306" width="62" height="62" as="geometry" />
        </mxCell>
        <mxCell id="Ugb7wUQW9oK9LGEoKZRi-17" value="" style="endArrow=classic;html=1;rounded=0;entryX=0;entryY=0.5;entryDx=0;entryDy=0;" parent="1" target="Ugb7wUQW9oK9LGEoKZRi-16" edge="1">
          <mxGeometry width="50" height="50" relative="1" as="geometry">
            <mxPoint x="316" y="336.76" as="sourcePoint" />
            <mxPoint x="384" y="336.76" as="targetPoint" />
          </mxGeometry>
        </mxCell>
        <mxCell id="Ugb7wUQW9oK9LGEoKZRi-18" value="x" style="text;html=1;align=center;verticalAlign=middle;resizable=0;points=[];autosize=1;strokeColor=none;fillColor=none;" parent="1" vertex="1">
          <mxGeometry x="329" y="314" width="24" height="26" as="geometry" />
        </mxCell>
        <mxCell id="Ugb7wUQW9oK9LGEoKZRi-22" value="" style="endArrow=classic;html=1;rounded=0;exitX=0.378;exitY=0.028;exitDx=0;exitDy=0;exitPerimeter=0;entryX=0.374;entryY=0.994;entryDx=0;entryDy=0;entryPerimeter=0;" parent="1" source="Ugb7wUQW9oK9LGEoKZRi-10" target="Ugb7wUQW9oK9LGEoKZRi-3" edge="1">
          <mxGeometry width="50" height="50" relative="1" as="geometry">
            <mxPoint x="322" y="260" as="sourcePoint" />
            <mxPoint x="322" y="314" as="targetPoint" />
          </mxGeometry>
        </mxCell>
        <mxCell id="Ugb7wUQW9oK9LGEoKZRi-23" value="0~8|a|b|f|n|r|t|v|\|&#39;|&quot;|?" style="edgeLabel;html=1;align=center;verticalAlign=middle;resizable=0;points=[];" parent="Ugb7wUQW9oK9LGEoKZRi-22" vertex="1" connectable="0">
          <mxGeometry x="-0.4192" relative="1" as="geometry">
            <mxPoint x="-61" y="-12" as="offset" />
          </mxGeometry>
        </mxCell>
        <mxCell id="Ugb7wUQW9oK9LGEoKZRi-24" value="" style="endArrow=classic;html=1;rounded=0;exitX=0;exitY=0;exitDx=0;exitDy=0;" parent="1" source="Ugb7wUQW9oK9LGEoKZRi-16" target="Ugb7wUQW9oK9LGEoKZRi-3" edge="1">
          <mxGeometry width="50" height="50" relative="1" as="geometry">
            <mxPoint x="387" y="277" as="sourcePoint" />
            <mxPoint x="440" y="277.24" as="targetPoint" />
          </mxGeometry>
        </mxCell>
        <mxCell id="Ugb7wUQW9oK9LGEoKZRi-25" value="0~f" style="edgeLabel;html=1;align=center;verticalAlign=middle;resizable=0;points=[];" parent="Ugb7wUQW9oK9LGEoKZRi-24" vertex="1" connectable="0">
          <mxGeometry x="-0.0789" y="-1" relative="1" as="geometry">
            <mxPoint x="16" y="-7" as="offset" />
          </mxGeometry>
        </mxCell>
        <mxCell id="Ugb7wUQW9oK9LGEoKZRi-26" value="" style="endArrow=classic;html=1;rounded=0;entryX=0;entryY=0.5;entryDx=0;entryDy=0;" parent="1" edge="1">
          <mxGeometry width="50" height="50" relative="1" as="geometry">
            <mxPoint x="316" y="226.72" as="sourcePoint" />
            <mxPoint x="369" y="226.96" as="targetPoint" />
          </mxGeometry>
        </mxCell>
        <mxCell id="Ugb7wUQW9oK9LGEoKZRi-27" value="&quot;" style="text;html=1;align=center;verticalAlign=middle;resizable=0;points=[];autosize=1;strokeColor=none;fillColor=none;" parent="1" vertex="1">
          <mxGeometry x="338" y="201.5" width="22" height="26" as="geometry" />
        </mxCell>
        <mxCell id="Ugb7wUQW9oK9LGEoKZRi-28" value="2" style="ellipse;whiteSpace=wrap;html=1;aspect=fixed;" parent="1" vertex="1">
          <mxGeometry x="369" y="197" width="62" height="62" as="geometry" />
        </mxCell>
        <mxCell id="Ugb7wUQW9oK9LGEoKZRi-29" value="END" style="ellipse;whiteSpace=wrap;html=1;aspect=fixed;" parent="1" vertex="1">
          <mxGeometry x="373.5" y="201.5" width="53" height="53" as="geometry" />
        </mxCell>
        <mxCell id="Ugb7wUQW9oK9LGEoKZRi-30" value="ERROR" style="ellipse;whiteSpace=wrap;html=1;aspect=fixed;" parent="1" vertex="1">
          <mxGeometry x="254" y="421" width="62" height="62" as="geometry" />
        </mxCell>
        <mxCell id="Ugb7wUQW9oK9LGEoKZRi-31" value="" style="endArrow=classic;html=1;rounded=0;exitX=0.5;exitY=1;exitDx=0;exitDy=0;" parent="1" source="Ugb7wUQW9oK9LGEoKZRi-10" target="Ugb7wUQW9oK9LGEoKZRi-30" edge="1">
          <mxGeometry width="50" height="50" relative="1" as="geometry">
            <mxPoint x="326" y="346.76" as="sourcePoint" />
            <mxPoint x="379" y="347" as="targetPoint" />
          </mxGeometry>
        </mxCell>
        <mxCell id="Ugb7wUQW9oK9LGEoKZRi-32" value="" style="endArrow=classic;html=1;rounded=0;exitX=0;exitY=1;exitDx=0;exitDy=0;entryX=0.94;entryY=0.212;entryDx=0;entryDy=0;entryPerimeter=0;" parent="1" source="Ugb7wUQW9oK9LGEoKZRi-16" target="Ugb7wUQW9oK9LGEoKZRi-30" edge="1">
          <mxGeometry width="50" height="50" relative="1" as="geometry">
            <mxPoint x="295" y="378" as="sourcePoint" />
            <mxPoint x="295" y="431" as="targetPoint" />
          </mxGeometry>
        </mxCell>
        <mxCell id="Ugb7wUQW9oK9LGEoKZRi-33" value="!(0~8|a|b|f|n|r|t|v|\|&#39;|&quot;|?|x)" style="text;html=1;align=center;verticalAlign=middle;resizable=0;points=[];autosize=1;strokeColor=none;fillColor=none;" parent="1" vertex="1">
          <mxGeometry x="136" y="377" width="146" height="26" as="geometry" />
        </mxCell>
        <mxCell id="Ugb7wUQW9oK9LGEoKZRi-35" value="&lt;span style=&quot;color: rgb(0, 0, 0); font-family: Helvetica; font-size: 11px; font-style: normal; font-variant-ligatures: normal; font-variant-caps: normal; font-weight: 400; letter-spacing: normal; orphans: 2; text-align: center; text-indent: 0px; text-transform: none; widows: 2; word-spacing: 0px; -webkit-text-stroke-width: 0px; background-color: rgb(255, 255, 255); text-decoration-thickness: initial; text-decoration-style: initial; text-decoration-color: initial; float: none; display: inline !important;&quot;&gt;!(0~f)&lt;/span&gt;" style="text;whiteSpace=wrap;html=1;" parent="1" vertex="1">
          <mxGeometry x="351.0012757610453" y="387.99943317281793" width="45" height="36" as="geometry" />
        </mxCell>
      </root>
    </mxGraphModel>
  </diagram>
</mxfile>
